<?xml version="1.0" standalone="no"?>
<!DOCTYPE svg PUBLIC "-//W3C//DTD SVG 20010904//EN"
 "http://www.w3.org/TR/2001/REC-SVG-20010904/DTD/svg10.dtd">
<svg version="1.0" xmlns="http://www.w3.org/2000/svg"
 width="1410.000000pt" height="598.000000pt" viewBox="0 0 1410.000000 598.000000"
 preserveAspectRatio="xMidYMid meet">

<g transform="translate(0.000000,598.000000) scale(0.100000,-0.100000)"
fill="#000000" stroke="none">
<path d="M7583 3930 c0 -36 2 -50 4 -32 2 17 2 47 0 65 -2 17 -4 3 -4 -33z"/>
<path d="M7642 3983 c-21 -8 -33 -50 -22 -78 12 -32 56 -44 78 -21 16 16 15
17 -10 5 -35 -15 -58 1 -58 41 0 39 23 56 57 41 23 -11 25 -10 13 3 -12 16
-33 19 -58 9z"/>
<path d="M7746 3968 c-9 -12 -16 -31 -16 -41 0 -20 66 -87 84 -87 6 0 5 4 -3
9 -12 7 -10 14 8 36 26 34 27 66 3 88 -26 23 -58 21 -76 -5z m68 -11 c19 -28
11 -64 -16 -72 -26 -9 -48 12 -48 44 0 50 39 67 64 28z"/>
<path d="M7869 3973 c-13 -16 -12 -17 3 -4 18 14 48 9 48 -8 0 -6 -13 -26 -30
-44 -16 -19 -30 -37 -30 -41 0 -3 17 -5 38 -5 30 2 32 3 10 6 -35 5 -35 10 -1
45 22 23 25 32 17 46 -15 24 -38 26 -55 5z"/>
<path d="M7973 3955 c-29 -44 -29 -55 2 -55 17 0 25 -6 26 -17 0 -17 1 -17 7
-1 8 21 3 108 -7 108 -3 0 -16 -16 -28 -35z m27 -20 c0 -18 -5 -25 -20 -25
-17 0 -18 3 -8 25 6 14 15 25 20 25 4 0 8 -11 8 -25z"/>
<path d="M3958 3714 c-78 -42 -56 -156 33 -170 30 -5 42 -1 69 23 45 40 45 95
1 135 -35 31 -63 34 -103 12z"/>
<path d="M1430 3676 c-124 -27 -218 -103 -261 -214 -20 -49 -23 -75 -23 -192
0 -116 3 -143 22 -192 42 -105 115 -175 218 -207 184 -58 399 -23 502 82 140
144 147 467 13 620 -39 44 -135 93 -210 107 -70 13 -192 11 -261 -4z m235 -65
c75 -34 109 -100 125 -242 24 -208 -18 -385 -105 -439 -79 -49 -205 -35 -266
30 -55 58 -73 134 -74 310 0 212 32 297 130 341 52 24 138 24 190 0z"/>
<path d="M7588 3493 c7 -3 16 -2 19 1 4 3 -2 6 -13 5 -11 0 -14 -3 -6 -6z"/>
<path d="M2436 3429 c-32 -11 -68 -27 -80 -35 -25 -16 -36 -10 -36 18 0 16
-10 18 -110 18 -101 0 -110 -2 -110 -19 0 -12 9 -21 25 -25 l25 -6 0 -239 0
-239 -25 -6 c-16 -4 -25 -13 -25 -26 0 -19 7 -20 140 -20 133 0 140 1 140 20
0 13 -9 22 -25 26 l-25 6 0 219 c0 242 -4 230 70 243 47 8 82 -12 97 -54 7
-22 12 -104 12 -218 l1 -183 -30 -10 c-19 -7 -30 -18 -30 -30 0 -18 9 -19 145
-19 139 0 145 1 145 20 0 15 -9 22 -30 27 l-30 6 0 218 c0 248 -3 239 86 242
33 2 49 -3 66 -21 22 -22 23 -29 26 -231 l3 -209 -25 -6 c-17 -4 -26 -13 -26
-26 0 -19 7 -20 140 -20 131 0 140 1 140 19 0 12 -11 23 -30 30 l-30 10 0 216
c0 255 -5 275 -78 307 -58 26 -127 18 -219 -26 l-68 -33 -23 28 c-23 28 -75
49 -122 49 -14 -1 -51 -10 -84 -21z"/>
<path d="M3485 3425 c-110 -41 -105 -40 -105 -16 0 20 -5 21 -115 21 -97 0
-115 -2 -115 -16 0 -8 14 -20 30 -25 l30 -11 0 -238 0 -237 -30 -6 c-21 -5
-30 -12 -30 -27 0 -19 6 -20 145 -20 138 0 145 1 145 20 0 13 -9 22 -25 26
l-25 6 0 223 c0 247 -6 225 67 240 43 9 88 -16 102 -56 7 -19 11 -108 11 -219
l0 -188 -25 -6 c-16 -4 -25 -13 -25 -26 0 -19 7 -20 140 -20 131 0 140 1 140
19 0 12 -11 23 -30 30 l-30 10 0 218 c0 198 -2 221 -20 250 -44 72 -124 89
-235 48z"/>
<path d="M7588 3443 c7 -3 16 -2 19 1 4 3 -2 6 -13 5 -11 0 -14 -3 -6 -6z"/>
<path d="M3860 3411 c0 -12 11 -23 30 -30 l30 -10 0 -235 0 -235 -35 -7 c-25
-4 -35 -11 -35 -25 0 -18 10 -19 150 -19 140 0 150 1 150 19 0 13 -9 20 -30
25 l-30 6 0 265 0 265 -115 0 c-106 0 -115 -1 -115 -19z"/>
<path d="M7840 3255 c0 -29 -4 -35 -21 -35 -14 0 -19 -5 -17 -17 2 -10 10 -18
18 -18 9 0 17 -13 21 -35 4 -23 7 -4 8 53 0 48 -1 87 -4 87 -3 0 -5 -16 -5
-35z"/>
<path d="M9700 3167 c0 -72 1 -77 22 -77 12 0 30 -7 40 -17 17 -15 18 -15 18
7 0 13 7 31 15 40 13 14 9 22 -40 70 l-55 54 0 -77z"/>
<path d="M7572 3203 c2 -10 10 -18 18 -18 8 0 16 8 18 18 2 12 -3 17 -18 17
-15 0 -20 -5 -18 -17z"/>
<path d="M7630 3200 c0 -15 5 -20 18 -18 9 2 17 10 17 18 0 8 -8 16 -17 18
-13 2 -18 -3 -18 -18z"/>
<path d="M7684 3209 c-8 -14 11 -33 25 -25 6 4 11 14 11 22 0 16 -26 19 -36 3z"/>
<path d="M7742 3203 c2 -10 10 -18 18 -18 8 0 16 8 18 18 2 12 -3 17 -18 17
-15 0 -20 -5 -18 -17z"/>
<path d="M9403 2865 c0 -33 2 -45 4 -27 2 18 2 45 0 60 -2 15 -4 0 -4 -33z"/>
<path d="M9462 2904 c9 -3 19 -13 22 -22 3 -12 4 -12 3 3 -1 12 -10 21 -22 22
-15 1 -15 0 -3 -3z"/>
<path d="M7899 2894 c-1 -5 0 -22 1 -39 3 -46 15 -50 14 -4 -1 35 -12 67 -15
43z"/>
<path d="M7578 2883 c7 -3 16 -2 19 1 4 3 -2 6 -13 5 -11 0 -14 -3 -6 -6z"/>
<path d="M7691 2846 c2 -34 3 -36 6 -11 3 17 9 35 14 41 5 7 3 11 -6 11 -11 0
-15 -11 -14 -41z"/>
<path d="M7745 2879 c-11 -16 -1 -19 13 -3 7 8 8 14 3 14 -5 0 -13 -5 -16 -11z"/>
<path d="M7827 2884 c-4 -4 -7 -12 -7 -18 0 -6 4 -5 9 3 12 19 41 6 41 -19 0
-25 -28 -38 -42 -19 -8 12 -9 11 -5 -1 5 -20 37 -19 51 3 18 28 -24 74 -47 51z"/>
<path d="M7984 2856 c1 -26 6 -41 16 -43 10 -3 11 -2 3 4 -6 4 -13 24 -16 43
-4 34 -4 33 -3 -4z"/>
<path d="M8067 2883 c-10 -10 -8 -33 3 -33 5 0 7 7 3 17 -5 13 -2 15 15 11 12
-4 20 -2 16 3 -6 11 -28 12 -37 2z"/>
<path d="M8137 2883 c-17 -16 -5 -33 23 -33 32 0 37 9 18 28 -13 13 -31 16
-41 5z m38 -13 c3 -5 -3 -10 -14 -10 -12 0 -21 5 -21 10 0 6 6 10 14 10 8 0
18 -4 21 -10z"/>
<path d="M8213 2850 c0 -25 2 -35 4 -22 2 12 2 32 0 45 -2 12 -4 2 -4 -23z"/>
<path d="M8287 2883 c6 -4 13 -24 16 -43 4 -34 4 -33 3 4 -1 26 -6 41 -16 43
-10 3 -11 2 -3 -4z"/>
<path d="M8346 2881 c-3 -5 3 -7 14 -4 11 3 20 0 20 -6 0 -6 -6 -11 -14 -11
-7 0 -20 -8 -27 -17 -11 -15 -11 -16 1 -5 19 16 40 15 40 -2 0 -8 4 -17 8 -20
5 -3 6 11 3 32 -6 36 -32 55 -45 33z"/>
<path d="M8447 2883 c6 -4 13 -24 16 -43 4 -34 4 -33 3 4 -1 26 -6 41 -16 43
-10 3 -11 2 -3 -4z"/>
<path d="M8487 2883 c6 -4 13 -24 16 -43 4 -34 4 -33 3 4 -1 26 -6 41 -16 43
-10 3 -11 2 -3 -4z"/>
<path d="M8541 2876 c-16 -19 -11 -46 11 -60 12 -7 21 -7 28 0 8 8 4 10 -11
10 -12 -1 -24 5 -26 12 -3 7 5 12 22 12 20 0 26 4 23 17 -4 23 -31 28 -47 9z
m39 -6 c0 -5 -9 -10 -21 -10 -11 0 -17 5 -14 10 3 6 13 10 21 10 8 0 14 -4 14
-10z"/>
<path d="M8662 2878 c-27 -27 0 -77 34 -64 10 4 14 16 12 38 -3 35 -25 47 -46
26z m38 -28 c0 -20 -5 -30 -15 -30 -18 0 -30 24 -21 45 10 28 36 17 36 -15z"/>
<path d="M8745 2880 c-3 -6 1 -7 9 -4 18 7 21 14 7 14 -6 0 -13 -4 -16 -10z"/>
<path d="M8821 2831 c1 -32 4 -48 7 -36 4 11 16 20 27 20 16 0 20 7 20 35 0
31 -3 35 -27 36 -27 1 -28 0 -27 -55z m49 19 c0 -20 -5 -30 -15 -30 -18 0 -30
24 -21 45 10 28 36 17 36 -15z"/>
<path d="M8907 2883 c-3 -5 5 -8 18 -8 13 0 21 3 18 8 -2 4 -10 7 -18 7 -8 0
-16 -3 -18 -7z"/>
<path d="M8984 2878 c-7 -11 22 -39 40 -37 6 0 1 5 -11 11 -28 14 -30 32 -3
25 11 -3 18 -1 14 4 -7 13 -31 11 -40 -3z"/>
<path d="M9054 2878 c-7 -11 22 -39 40 -37 6 0 1 5 -11 11 -28 14 -30 32 -3
25 11 -3 18 -1 14 4 -7 13 -31 11 -40 -3z"/>
<path d="M9156 2875 c-9 -26 -7 -32 5 -12 6 10 9 21 6 23 -2 3 -7 -2 -11 -11z"/>
<path d="M9201 2874 c0 -11 3 -14 6 -6 3 7 2 16 -1 19 -3 4 -6 -2 -5 -13z"/>
<path d="M9237 2883 c-3 -5 5 -8 18 -8 13 0 21 3 18 8 -2 4 -10 7 -18 7 -8 0
-16 -3 -18 -7z"/>
<path d="M9315 2880 c-3 -6 1 -7 9 -4 18 7 21 14 7 14 -6 0 -13 -4 -16 -10z"/>
<path d="M9360 2875 c-17 -20 -4 -65 18 -65 16 1 16 1 0 11 -10 5 -18 19 -18
29 0 10 8 24 18 29 9 6 12 11 6 11 -6 0 -17 -7 -24 -15z"/>
<path d="M7612 2850 c0 -19 2 -27 5 -17 2 9 2 25 0 35 -3 9 -5 1 -5 -18z"/>
<path d="M7662 2855 c0 -16 2 -22 5 -12 2 9 2 23 0 30 -3 6 -5 -1 -5 -18z"/>
<path d="M8263 2845 c0 -22 2 -30 4 -17 2 12 2 30 0 40 -3 9 -5 -1 -4 -23z"/>
<path d="M8423 2845 c0 -22 2 -30 4 -17 2 12 2 30 0 40 -3 9 -5 -1 -4 -23z"/>
<path d="M9121 2864 c0 -11 3 -14 6 -6 3 7 2 16 -1 19 -3 4 -6 -2 -5 -13z"/>
<path d="M8904 2845 c-7 -17 3 -35 19 -34 9 0 9 2 0 6 -21 8 -15 33 8 33 14 0
19 -5 16 -15 -4 -8 -2 -17 3 -20 6 -4 10 5 10 19 0 21 -5 26 -25 26 -14 0 -28
-7 -31 -15z"/>
<path d="M8096 2836 c3 -8 -2 -16 -10 -19 -13 -4 -13 -5 1 -3 19 1 32 36 14
36 -6 0 -8 -6 -5 -14z"/>
<path d="M9186 2835 c-9 -26 -7 -32 5 -12 6 10 9 21 6 23 -2 3 -7 -2 -11 -11z"/>
<path d="M7740 2831 c0 -10 19 -25 25 -20 1 2 -3 10 -11 17 -8 7 -14 8 -14 3z"/>
<path d="M8130 2832 c0 -18 29 -27 43 -13 9 9 8 11 -7 5 -11 -4 -21 -2 -27 7
-6 10 -9 11 -9 1z"/>
<path d="M9130 2826 c0 -9 5 -16 10 -16 6 0 10 4 10 9 0 6 -4 13 -10 16 -5 3
-10 -1 -10 -9z"/>
<path d="M8987 2818 c2 -5 10 -8 18 -8 8 0 16 3 18 8 3 4 -5 7 -18 7 -13 0
-21 -3 -18 -7z"/>
<path d="M9057 2818 c2 -5 10 -8 18 -8 8 0 16 3 18 8 3 4 -5 7 -18 7 -13 0
-21 -3 -18 -7z"/>
<path d="M9237 2818 c2 -5 10 -8 18 -8 8 0 16 3 18 8 3 4 -5 7 -18 7 -13 0
-21 -3 -18 -7z"/>
<path d="M8348 2813 c7 -3 16 -2 19 1 4 3 -2 6 -13 5 -11 0 -14 -3 -6 -6z"/>
<path d="M7747 2788 c2 -5 10 -8 18 -8 8 0 16 3 18 8 3 4 -5 7 -18 7 -13 0
-21 -3 -18 -7z"/>
</g>
</svg>
