<?xml version="1.0" encoding="utf-8"?>
<!-- Generator: Adobe Illustrator 21.0.2, SVG Export Plug-In . SVG Version: 6.00 Build 0)  -->
<svg version="1.1" id="Layer_1" xmlns="http://www.w3.org/2000/svg" xmlns:xlink="http://www.w3.org/1999/xlink" x="0px" y="0px"
	 viewBox="0 0 200 200" style="enable-background:new 0 0 200 200;" xml:space="preserve">
<style type="text/css">
	.st0{fill:#7CBB00;}
</style>
<g>
	<g>
		<g>
			<g>
				<g>
					<path class="st0" d="M17.1,86.1c0,14.9,3.7,28.7,11.1,41.3c7.4,12.6,17.4,22.6,30.1,29.9c12.6,7.3,26.4,11,41.3,11
						c14.8,0,28.6-3.7,41.1-11c12.6-7.3,22.6-17.3,30-29.9c7.4-12.6,11.1-26.4,11.1-41.3c0-15-3.7-28.8-11.1-41.4
						c-7.4-12.6-17.4-22.6-30-29.9s-26.3-11-41.1-11c-14.9,0-28.7,3.7-41.3,11c-12.6,7.3-22.6,17.3-30.1,30S17.1,71.1,17.1,86.1z
						 M54.2,86.1C54.2,73,58.6,62,67.4,53c8.8-9,19.5-13.5,32.2-13.5c12.6,0,23.3,4.5,32,13.5c8.7,9,13.1,20,13.1,33.1
						c0,13-4.4,24-13.1,33c-8.7,9-19.4,13.5-32,13.5c-12.7,0-23.4-4.5-32.2-13.5C58.6,110,54.2,99,54.2,86.1z"/>
				</g>
			</g>
		</g>
	</g>
	<path class="st0" d="M42.1,167c5.5-0.1,10.6-0.6,15.4-1.6s8.6-2.1,11.5-3.3c2.9-1.2,6.8-2.3,11.5-3.2c4.7-1,9.8-1.5,15.3-1.6
		c2.5-0.1,3.7,1.1,3.7,3.6V182c0,2.2-1.2,3.2-3.7,3.2c-5.4-0.3-10.5,0.1-15.2,1.2c-4.8,1.1-8.6,2.3-11.5,3.7
		c-2.9,1.4-6.8,2.6-11.6,3.7c-4.8,1.1-10,1.5-15.5,1.3c-2.3,0-3.4-1.2-3.4-3.7v-21.3C38.5,168,39.7,167,42.1,167z"/>
</g>
</svg>
